<svg
      xmlns="http://www.w3.org/2000/svg"
      width="102"
      height="127"
      viewBox="0 0 102 127"
      fill="none"
    >
      <path
        d="M52.6638 125.069C48.3608 125.121 44.0643 124.718 39.8456 123.869C39.5081 124.38 39.0532 124.802 38.5189 125.101C37.9847 125.399 37.3867 125.566 36.775 125.586C35.7641 125.624 34.7793 125.26 34.0368 124.573C33.2943 123.886 32.8549 122.932 32.8149 121.922C32.8149 121.922 32.8149 121.922 32.8149 121.91C28.3395 120.329 24.1439 118.047 20.3851 115.149C20.155 115.219 19.9167 115.259 19.6762 115.267C18.9589 115.292 18.2606 115.033 17.7338 114.546C17.207 114.058 16.8943 113.382 16.864 112.665C16.8578 112.489 16.8689 112.313 16.897 112.139C13.8403 109.225 11.2496 105.859 9.21578 102.158C8.47813 102.136 7.77614 101.836 7.25162 101.317C6.7271 100.798 6.41914 100.099 6.38994 99.3618C6.36503 98.6783 6.5847 98.0084 7.00949 97.4723C5.19699 92.8088 4.09579 87.8994 3.74278 82.9087C2.96266 82.6933 2.2715 82.2349 1.76963 81.6001C1.26777 80.9653 0.981332 80.1871 0.951894 79.3785C0.924687 78.5532 1.16697 77.7414 1.6421 77.0659C2.11724 76.3905 2.7994 75.8881 3.58546 75.6347C3.85116 69.2163 4.76209 62.8408 6.30448 56.6048C5.35131 62.8413 4.97359 69.1523 5.17609 75.458C6.09205 75.5492 6.94408 75.9686 7.57486 76.6389C8.20563 77.3092 8.57256 78.185 8.60788 79.1047C8.63914 79.9566 8.38331 80.7942 7.88145 81.4833C7.37958 82.1724 6.66077 82.673 5.84031 82.9048C6.46517 87.5278 7.67849 92.052 9.45078 96.3674C10.1816 96.3985 10.874 96.7035 11.3903 97.2215C11.9067 97.7396 12.2092 98.4328 12.2378 99.1636C12.261 99.8079 12.0667 100.441 11.6862 100.962C13.5516 104.305 15.8784 107.369 18.5983 110.063C18.8827 109.954 19.1834 109.893 19.4879 109.882C20.2052 109.857 20.9035 110.117 21.4303 110.604C21.9571 111.092 22.2698 111.768 22.3001 112.485C22.3095 112.741 22.282 112.997 22.2185 113.246C25.6548 115.898 29.4467 118.055 33.483 119.654C33.8233 119.161 34.2745 118.754 34.8003 118.467C35.3262 118.18 35.9121 118.021 36.5109 118.001C37.5219 117.962 38.507 118.327 39.2496 119.014C39.9922 119.701 40.4315 120.655 40.4709 121.665C40.4709 121.757 40.4709 121.85 40.4709 121.939C44.4476 122.954 48.5064 123.613 52.5997 123.91C52.7038 123.355 52.9942 122.852 53.4229 122.485C53.8517 122.117 54.393 121.907 54.9575 121.889C55.5878 121.865 56.2035 122.082 56.6791 122.496C57.1547 122.911 57.4544 123.49 57.5173 124.118C59.9571 124.162 62.3973 124.054 64.8237 123.794C62.4033 124.324 59.9479 124.68 57.4765 124.858C57.3601 125.399 57.0659 125.886 56.6407 126.241C56.2155 126.595 55.6838 126.798 55.1303 126.815H55.0429C54.5118 126.817 53.9942 126.648 53.566 126.334C53.1378 126.02 52.8216 125.576 52.6638 125.069ZM59.4614 26.4619C66.989 27.7363 74.1376 30.6732 80.3867 35.0586C86.6358 39.444 91.8281 45.1675 95.5855 51.8125C110.781 78.4464 97.3334 110.246 71.4406 121.885C71.4522 121.887 47.1092 98.7384 59.4594 26.464L59.4614 26.4619ZM64.8994 120.782C64.7965 120.782 60.314 118.411 53.0911 114.168C36.0176 104.141 25.124 95.8198 16.6096 85.5709C13.3296 81.442 10.9573 76.668 9.64784 71.5604C8.33833 66.4527 8.12095 61.1264 9.00991 55.9291C10.9798 48.557 15.0631 41.9219 20.7569 36.8408C26.4508 31.7596 33.5066 28.4544 41.0555 27.332L28.4315 36.6721L33.6345 49.7813L41.4692 43.1111C47.4569 107.813 64.913 120.784 64.913 120.784L64.8994 120.782ZM60.0731 23.1084L62.1707 11.8246L52.893 18.7491C52.1776 17.8016 51.6177 16.7463 51.2344 15.6228C50.8381 14.4599 50.6366 13.2396 50.6381 12.011C50.6382 11.2491 50.7156 10.4892 50.8692 9.74292C51.0188 9.01854 51.24 8.3108 51.5296 7.63019C51.8152 6.96098 52.1652 6.32117 52.5745 5.71955C52.9819 5.12136 53.4456 4.5634 53.9592 4.0534C54.4736 3.54289 55.0355 3.08252 55.6372 2.67858C56.2445 2.27167 56.8897 1.92442 57.5639 1.64166C58.2527 1.35327 58.9683 1.13341 59.7002 0.985299C60.4485 0.837108 61.2097 0.763652 61.9726 0.76592C62.7403 0.765959 63.5061 0.842681 64.2585 0.995018C64.9904 1.14313 65.706 1.36299 66.3949 1.65138C67.069 1.93418 67.7142 2.28143 68.3215 2.6883C68.9233 3.09219 69.4852 3.55256 69.9995 4.06312C70.5132 4.57307 70.9769 5.13103 71.3843 5.72926C71.7937 6.33079 72.1437 6.97062 72.4292 7.63991C72.7189 8.32045 72.9402 9.02821 73.0895 9.75263C73.2431 10.4989 73.3206 11.2588 73.3206 12.0207C73.3206 12.7826 73.2431 13.5425 73.0895 14.2887C72.9402 15.0131 72.719 15.7209 72.4292 16.4014C72.1436 17.0707 71.7937 17.7107 71.3843 18.3122C70.9768 18.9104 70.5131 19.4683 69.9995 19.9782C69.4852 20.4888 68.9233 20.9492 68.3215 21.3531C67.7141 21.7597 67.0689 22.107 66.3949 22.39C65.706 22.6784 64.9905 22.8983 64.2585 23.0463C63.5061 23.1986 62.7403 23.2753 61.9726 23.2754C61.3348 23.275 60.6982 23.2218 60.0692 23.1163L60.0731 23.1084Z"
        fill="url(#paint0_linear_89_2508)"
        width="102"
        height="127"
      />
      <defs>
        <linearGradient
          id="paint0_linear_89_2508"
          x1="0.949829"
          y1="62.53"
          x2="101.974"
          y2="62.3681"
          gradientUnits="userSpaceOnUse"
        >
          <stop stop-color="#4FA375" />
          <stop offset="1" stop-color="#2087A2" />
        </linearGradient>
      </defs>
    </svg>